<svg width="368" height="298" viewBox="0 0 368 298" fill="none" xmlns="http://www.w3.org/2000/svg">
<path d="M62.2786 216.646V252.147C62.2804 253.834 62.9496 255.453 64.1401 256.649L85.8151 278.324C87.0102 279.513 88.6269 280.182 90.3131 280.185H125.818C146.263 290.581 168.875 296 191.812 296C214.748 296 237.36 290.581 257.805 280.185H293.314C294.149 280.186 294.975 280.021 295.746 279.702C296.517 279.382 297.218 278.914 297.808 278.324L319.487 256.649C320.677 255.453 321.347 253.834 321.348 252.147V216.646C331.742 196.2 337.159 173.588 337.159 150.652C337.159 127.716 331.742 105.105 321.348 84.6585V49.15C321.348 47.4645 320.678 45.8481 319.487 44.656L297.828 22.9809C297.238 22.3899 296.538 21.9211 295.767 21.6017C294.995 21.2822 294.169 21.1183 293.334 21.1194H257.825C237.38 10.7234 214.768 5.30469 191.832 5.30469C168.895 5.30469 146.283 10.7234 125.838 21.1194H90.3131C89.4779 21.1191 88.6507 21.2833 87.879 21.6027C87.1072 21.9221 86.4059 22.3905 85.8151 22.9809L64.1401 44.656C62.9486 45.8481 62.279 47.4645 62.2786 49.15V84.6585C51.8826 105.104 46.4639 127.716 46.4639 150.652C46.4639 173.589 51.8826 196.201 62.2786 216.646" fill="#6EDBFF"/>
<path d="M62.2786 216.646V252.147C62.2804 253.834 62.9496 255.453 64.1401 256.649L85.8151 278.324C87.0102 279.513 88.6269 280.182 90.3131 280.185H125.818C146.263 290.581 168.875 296 191.812 296C214.748 296 237.36 290.581 257.805 280.185H293.314C294.149 280.186 294.975 280.021 295.746 279.702C296.517 279.382 297.218 278.914 297.808 278.324L319.487 256.649C320.677 255.453 321.347 253.834 321.348 252.147V216.646C331.742 196.2 337.159 173.588 337.159 150.652C337.159 127.716 331.742 105.105 321.348 84.6585V49.15C321.348 47.4645 320.678 45.8481 319.487 44.656L297.828 22.9809C297.238 22.3899 296.538 21.9211 295.767 21.6017C294.995 21.2822 294.169 21.1183 293.334 21.1194H257.825C237.38 10.7234 214.768 5.30469 191.832 5.30469C168.895 5.30469 146.283 10.7234 125.838 21.1194H90.3131C89.4779 21.1191 88.6507 21.2833 87.879 21.6027C87.1072 21.9221 86.4059 22.3905 85.8151 22.9809L64.1401 44.656C62.9486 45.8481 62.279 47.4645 62.2786 49.15V84.6585C51.8826 105.104 46.4639 127.716 46.4639 150.652C46.4639 173.589 51.8826 196.201 62.2786 216.646" stroke="white" stroke-width="2" stroke-linecap="round" stroke-linejoin="round"/>
<path d="M292.874 57.1404C290.193 51.1085 284.936 49.1511 283.286 48.4241L281.633 59.8328L189.356 41.0939C184.83 40.1751 179.633 42.8675 177.747 47.1098L91.6185 234.336L82.7664 232.486C82.7664 232.486 77.2937 247.906 89.6851 251.872C90.7277 252.208 97.299 253.814 97.299 253.814C103.431 255.236 113.35 257.073 113.35 257.073L194.289 273.507C198.815 274.426 204.012 271.734 205.894 267.491L292.27 72.9833C295.199 66.9633 295.199 62.3655 292.874 57.1404Z" fill="#6EDBFF"/>
<path d="M293.39 70.3582C293.39 70.3582 294.548 64.7656 291.836 61.5699C290.33 59.8043 288.081 61.2943 288.081 61.2943L260.677 121.781L201.776 254.728C201.776 254.728 199.966 261.519 193.727 262.354C187.487 263.189 105.209 243.455 105.209 243.455C105.209 243.455 186.301 261.83 191.813 259.953C197.326 258.075 199.275 253.897 200.937 248.492C202.599 243.087 283.742 63.1398 283.742 63.1398C283.742 63.1398 287.485 56.7084 287.05 54.2676C286.794 52.8127 286.299 51.4102 285.584 50.1172C285.584 50.1172 288.516 50.1172 291.516 54.6951C294.516 59.273 295.531 64.8495 293.39 70.3582Z" fill="white"/>
<path d="M292.874 57.1404C290.193 51.1085 284.936 49.1511 283.286 48.4241L281.633 59.8328L189.356 41.0939C184.83 40.1751 179.633 42.8675 177.747 47.1098L91.6185 234.336L82.7664 232.486C82.7664 232.486 77.2937 247.906 89.6851 251.872C90.7277 252.208 97.299 253.814 97.299 253.814C103.431 255.236 113.35 257.073 113.35 257.073L194.289 273.507C198.815 274.426 204.012 271.734 205.894 267.491L292.27 72.9833C295.199 66.9633 295.199 62.3655 292.874 57.1404Z" stroke="black" stroke-width="1.2" stroke-linecap="round" stroke-linejoin="round"/>
<path d="M87.7441 99.7773L88.623 101.97C90.105 105.626 92.2821 108.649 94.9545 110.647L96.5524 111.845L94.9545 113.044C92.2821 115.041 90.085 118.053 88.623 121.708L87.7441 123.901L86.8693 121.708C85.4073 118.041 83.2062 115.041 80.5178 113.044L78.9199 111.845L80.5178 110.647C83.1902 108.649 85.3913 105.642 86.8533 101.986L87.7441 99.7773Z" fill="#6EDBFF" stroke="white" stroke-width="1.2" stroke-linecap="round" stroke-linejoin="round"/>
<path d="M327.256 88.332L328.027 90.2535C329.305 93.4492 331.223 96.0937 333.576 97.8433L334.982 98.8979L333.576 99.9485C331.235 101.702 329.305 104.343 328.027 107.538L327.256 109.46L326.485 107.538C325.207 104.343 323.289 101.698 320.936 99.9485L319.53 98.8979L320.936 97.8433C323.277 96.0897 325.207 93.4492 326.485 90.2535L327.256 88.332Z" fill="#6EDBFF" stroke="white" stroke-width="1.2" stroke-linecap="round" stroke-linejoin="round"/>
<path d="M310.447 106.391L310.846 107.381C311.426 108.921 312.415 110.273 313.706 111.292L314.433 111.835L313.706 112.379C312.414 113.397 311.425 114.749 310.846 116.289L310.447 117.28L310.047 116.289C309.469 114.749 308.48 113.396 307.187 112.379L306.464 111.835L307.187 111.292C308.479 110.274 309.468 108.921 310.047 107.381L310.447 106.391Z" fill="#6EDBFF" stroke="white" stroke-width="1.2" stroke-linecap="round" stroke-linejoin="round"/>
<path d="M100.767 84.4141L101.166 85.4047C101.742 86.9463 102.732 88.2993 104.026 89.3155L104.749 89.8588L104.026 90.4021C102.733 91.4191 101.744 92.7719 101.166 94.3128L100.767 95.3035L100.367 94.3128C99.7901 92.7719 98.8007 91.4191 97.5071 90.4021L96.7881 89.8748L97.5111 89.3315C98.8056 88.3153 99.7952 86.9622 100.371 85.4207L100.767 84.4141Z" fill="#6EDBFF" stroke="white" stroke-width="1.2" stroke-linecap="round" stroke-linejoin="round"/>
<path d="M187.327 260.132L88.1077 239.987C83.5777 239.068 81.4366 234.882 83.3141 230.639L170.769 33.7505C172.651 29.5081 177.848 26.8157 182.374 27.7345L281.585 47.8796C286.111 48.7984 288.252 52.9808 286.379 57.2231L198.936 254.112C197.05 258.354 191.853 261.051 187.327 260.132Z" fill="black" stroke="black" stroke-width="1.2" stroke-linecap="round" stroke-linejoin="round"/>
<path d="M190.863 255.587L88.8711 234.883C88.662 234.852 88.4632 234.772 88.2913 234.65C88.1194 234.527 87.9793 234.364 87.8828 234.176C87.7863 233.988 87.736 233.78 87.7363 233.569C87.7366 233.357 87.7874 233.149 87.8845 232.961L176.454 33.5159C176.665 33.0777 177.014 32.7199 177.446 32.4966C177.878 32.2732 178.371 32.1964 178.851 32.2776L280.843 52.9859C281.052 53.0167 281.251 53.0972 281.423 53.2206C281.595 53.3439 281.735 53.5067 281.831 53.6951C281.927 53.8836 281.977 54.0923 281.976 54.3039C281.975 54.5155 281.923 54.7237 281.825 54.9113L193.252 254.353C193.04 254.789 192.693 255.145 192.263 255.367C191.832 255.59 191.341 255.667 190.863 255.587V255.587Z" fill="#6EDBFF" stroke="black" stroke-width="1.2" stroke-linecap="round" stroke-linejoin="round"/>
<path d="M190.863 255.587L88.8711 234.883C88.662 234.852 88.4632 234.772 88.2913 234.65C88.1194 234.527 87.9793 234.364 87.8828 234.176C87.7863 233.988 87.736 233.78 87.7363 233.569C87.7366 233.357 87.7874 233.149 87.8845 232.961L176.454 33.5159C176.665 33.0777 177.014 32.7199 177.446 32.4966C177.878 32.2732 178.371 32.1964 178.851 32.2776L280.843 52.9859C281.052 53.0167 281.251 53.0972 281.423 53.2206C281.595 53.3439 281.735 53.5067 281.831 53.6951C281.927 53.8836 281.977 54.0923 281.976 54.3039C281.975 54.5155 281.923 54.7237 281.825 54.9113L193.252 254.353C193.04 254.789 192.693 255.145 192.263 255.367C191.832 255.59 191.341 255.667 190.863 255.587V255.587Z" fill="#6EDBFF"/>
<path d="M249.373 50.1165L205.419 41.1924L201.293 34.0859L258.608 45.7224L249.373 50.1165Z" fill="black"/>
<path d="M281.114 69.0664C281.114 69.0664 289.998 69.9332 287.701 83.2714" stroke="black" stroke-width="1.2" stroke-linecap="round" stroke-linejoin="round"/>
<path d="M207.381 235.094C207.381 235.094 216.593 235.493 215.398 246.075" stroke="black" stroke-width="1.2" stroke-linecap="round" stroke-linejoin="round"/>
<path d="M280.558 85.3555L274.051 100.264" stroke="black" stroke-width="1.2" stroke-linecap="round" stroke-linejoin="round"/>
<path d="M272.302 104.281L265.331 119.385" stroke="black" stroke-width="1.2" stroke-linecap="round" stroke-linejoin="round"/>
<path d="M191.813 266.086C191.813 266.086 164.126 300.74 123.665 294.449C104.402 291.453 102.493 281.754 102.493 281.754C102.493 281.754 77.602 288.277 65.2346 275.126C49.1201 257.989 60.3411 241 60.3411 241C60.3411 241 42.421 240.888 45.2453 208.875C49.7952 157.288 121.831 143.93 121.831 143.93L111.433 167.37C111.433 167.37 87.9682 183.593 86.7977 215.262C85.7152 244.507 99.4249 258.948 127.923 269.59C154.787 279.588 191.813 266.086 191.813 266.086Z" fill="white" stroke="#6EDBFF" stroke-width="1.2" stroke-linecap="round" stroke-linejoin="round"/>
<path d="M123.109 141.07L110.578 169.285H111.469L123.665 141.07H123.109Z" fill="black" stroke="black" stroke-width="1.2" stroke-linecap="round" stroke-linejoin="round"/>
<path d="M189.68 217.005C189.68 217.005 199.363 244.704 238.279 240.574C277.195 236.443 274.051 216.122 274.051 216.122C274.051 216.122 299.07 214.864 305.457 195.506C311.844 176.148 300.424 153.106 289.97 146.327C279.516 139.549 261.504 142.237 261.504 142.237L247.375 177.498C247.375 177.498 260.956 199.7 232.275 214.089C209.146 225.717 189.68 217.005 189.68 217.005Z" fill="white" stroke="#6EDBFF" stroke-width="1.2" stroke-linecap="round" stroke-linejoin="round"/>
<path d="M307.303 217.004C307.303 217.004 304.131 222.572 296.649 225.281C289.167 227.989 283.195 225.137 283.195 225.137C283.195 225.137 287.062 242.61 272.981 249.385C258.9 256.16 249.312 250.112 249.312 250.112" stroke="white" stroke-width="1.2" stroke-linecap="round" stroke-linejoin="round"/>
<path d="M36.5406 189.902C36.5406 189.902 21.8243 209.476 36.5406 229.01" stroke="white" stroke-width="1.2" stroke-linecap="round" stroke-linejoin="round"/>
<path d="M289.734 21.6581C285.16 6.32255 264.732 -1.11152 244.099 5.02029C223.467 11.1521 210.448 28.5888 215.018 43.9243C219.436 58.7565 238.707 66.2106 258.616 61.1134C258.616 61.1134 260.745 62.108 261.904 65.108C262.588 66.9506 262.588 68.9778 261.904 70.8204C261.904 70.8204 268.439 68.156 271.247 62.9309C274.055 57.7059 274.043 54.3584 274.043 54.3584L274.003 54.3784C286.499 46.1933 293.21 33.3265 289.734 21.6581Z" fill="#6EDBFF" stroke="white" stroke-width="1.2" stroke-linecap="round" stroke-linejoin="round"/>
<path d="M120.605 195.66C119.362 180.604 135.385 166.575 156.345 164.326C177.305 162.077 195.337 172.463 196.575 187.495C197.774 202.055 182.846 215.653 162.888 218.565C162.888 218.565 161.29 220.215 161.29 223.263C161.311 225.113 162.023 226.889 163.288 228.24C163.288 228.24 156.393 228.328 151.991 224.805C147.589 221.282 146.398 218.373 146.398 218.373H146.442C132.197 215.853 121.547 207.112 120.605 195.66Z" fill="#6EDBFF" stroke="white" stroke-width="1.2" stroke-linecap="round" stroke-linejoin="round"/>
<path d="M228.53 73.5372L179.986 96.7752C178.455 97.5077 177.809 99.3421 178.541 100.872L195.579 136.464C196.311 137.994 198.145 138.641 199.676 137.908L248.221 114.67C249.751 113.938 250.398 112.104 249.665 110.573L232.628 74.9817C231.895 73.4514 230.061 72.8047 228.53 73.5372Z" fill="#6EDBFF" stroke="white" stroke-width="1.2" stroke-linecap="round" stroke-linejoin="round"/>
<path d="M178.283 99.2484L213.037 108.875C213.857 109.121 214.739 109.05 215.508 108.675C216.278 108.301 216.879 107.651 217.191 106.854L231.173 73.5547" stroke="white" stroke-width="1.2" stroke-linecap="round" stroke-linejoin="round"/>
<path d="M218.634 103.422L249.868 112.622" stroke="white" stroke-width="1.2" stroke-linecap="round" stroke-linejoin="round"/>
<path d="M196.69 137.698L209.13 108.109" stroke="white" stroke-width="1.2" stroke-linecap="round" stroke-linejoin="round"/>
<path d="M185.525 49.2778L132.604 44.8837C132.226 44.8641 131.858 44.7599 131.527 44.5789C131.195 44.3978 130.908 44.1444 130.688 43.8376C130.467 43.5308 130.318 43.1782 130.253 42.8062C130.187 42.4341 130.205 42.0519 130.307 41.688L138.84 4.6934C139.042 3.8922 139.516 3.18614 140.181 2.69581C140.847 2.20548 141.661 1.96131 142.487 2.00499L195.404 6.38714C195.782 6.40599 196.15 6.5097 196.482 6.69056C196.814 6.87143 197.101 7.1248 197.322 7.43185C197.543 7.73889 197.691 8.09172 197.757 8.46412C197.823 8.83651 197.803 9.2189 197.701 9.58287L189.172 46.5894C188.971 47.391 188.496 48.0975 187.831 48.588C187.166 49.0784 186.351 49.3223 185.525 49.2778Z" fill="white" stroke="#6EDBFF" stroke-width="1.2" stroke-linecap="round" stroke-linejoin="round"/>
<path d="M139.639 3.19141L161.21 27.6787C162.296 28.913 164.154 29.0569 165.752 28.0302L197.441 7.65744" stroke="#6EDBFF" stroke-width="1.2" stroke-linecap="round" stroke-linejoin="round"/>
<path d="M169.02 25.9336L188.062 48.3916" stroke="#6EDBFF" stroke-width="1.2" stroke-linecap="round" stroke-linejoin="round"/>
<path d="M130.419 43.2872L158.589 25.1914" stroke="#6EDBFF" stroke-width="1.2" stroke-linecap="round" stroke-linejoin="round"/>
<path d="M284.273 182.102L204.72 173.57C202.251 173.302 201.124 171.357 202.175 169.22L226.415 120.437C227.477 118.3 230.337 116.782 232.806 117.045L312.36 125.582C314.829 125.846 315.955 127.795 314.905 129.932L290.665 178.711C289.602 180.848 286.742 182.366 284.273 182.102Z" fill="white" stroke="#6EDBFF" stroke-width="1.2" stroke-linecap="round" stroke-linejoin="round"/>
<path d="M228.121 118.484L253.659 152.151C254.945 153.845 257.742 154.149 260.494 152.846L315.097 127.373" stroke="#6EDBFF" stroke-width="1.2" stroke-linecap="round" stroke-linejoin="round"/>
<path d="M266.118 150.223L288.42 181.053" stroke="#6EDBFF" stroke-width="1.2" stroke-linecap="round" stroke-linejoin="round"/>
<path d="M201.863 171.321L250.398 148.699" stroke="#6EDBFF" stroke-width="1.2" stroke-linecap="round" stroke-linejoin="round"/>
<path d="M310.056 212.292C310.056 212.292 314.729 203.068 313.859 190.797" stroke="white" stroke-width="1.2" stroke-linecap="round" stroke-linejoin="round"/>
<path d="M229.595 33.6141L270.288 20.6914" stroke="white" stroke-width="1.2" stroke-linecap="round" stroke-linejoin="round"/>
<path d="M231.528 39.0829L272.222 26.1602" stroke="white" stroke-width="1.2" stroke-linecap="round" stroke-linejoin="round"/>
<path d="M262.188 39.4718L275.046 34.9219" stroke="white" stroke-width="1.2" stroke-linecap="round" stroke-linejoin="round"/>
<path d="M137.39 184.773H178.283" stroke="white" stroke-width="1.2" stroke-linecap="round" stroke-linejoin="round"/>
<path d="M136.954 191.344H177.847" stroke="white" stroke-width="1.2" stroke-linecap="round" stroke-linejoin="round"/>
<path d="M136.375 198.566H177.268" stroke="white" stroke-width="1.2" stroke-linecap="round" stroke-linejoin="round"/>
<path d="M310.055 129.723L266.309 150.191L266.118 149.92L260.493 152.848L287.964 180.491L269.325 154.406L310.055 129.723Z" fill="#6EDBFF"/>
<path d="M250.874 148.48L230.002 120.961L246.221 150.649L206.342 169.232L253.659 152.147L250.874 148.48Z" fill="#6EDBFF"/>
<path d="M140.709 4.39453L155.537 27.1521L158.861 25.011L140.709 4.39453Z" fill="#6EDBFF"/>
<path d="M132.265 42.1009L160.751 27.1529L158.861 25.0117L132.265 42.1009Z" fill="#6EDBFF"/>
<path d="M166.507 27.5514L187.643 48.7152L186.987 47.1213L169.019 25.9336L166.507 27.5514Z" fill="#6EDBFF"/>
<path d="M171.872 28.7158L195.776 8.73047L169.02 25.9315L171.872 28.7158Z" fill="#6EDBFF"/>
<path d="M248.21 153.251C248.21 153.251 250.846 158.38 256.531 158.588C262.215 158.795 266.669 155.108 266.669 155.108L261.4 152.488C261.4 152.488 258.041 153.906 256.463 153.646C255.409 153.421 254.44 152.903 253.667 152.152L248.21 153.251Z" fill="#6EDBFF"/>
<path d="M156.576 28.7171C156.576 28.7171 159.348 33.0553 162.884 33.263C166.419 33.4708 170.23 29.7278 170.23 29.7278L167.39 27.5587L164.406 28.7171H162.257L160.008 26.3203L156.576 28.7171Z" fill="#6EDBFF"/>
<path d="M249.744 113.045L222.524 104.38L231.388 74.5L219.005 103.369L218.637 103.266L217.379 106.417H217.415C217.115 107.144 216.528 108.227 215.617 108.606C214.591 109.038 212.606 108.766 211.595 108.582L211.651 108.475L209.134 107.524L208.918 108.039L184.851 101.061L206.641 110.855L197.286 137.536L210.217 112.142C210.824 112.397 213.692 113.875 216.948 112.313C219.512 111.087 220.395 109.118 220.97 107.392L249.744 113.045Z" fill="white"/>
<path d="M178.35 56.4203L119.349 85.2227C117.612 86.0705 116.891 88.1657 117.739 89.9025L136.036 127.383C136.884 129.12 138.979 129.841 140.716 128.993L199.717 100.19C201.454 99.3425 202.175 97.2473 201.327 95.5106L183.03 58.0298C182.182 56.2931 180.087 55.5725 178.35 56.4203Z" fill="white" stroke="#6EDBFF" stroke-width="1.2" stroke-linecap="round" stroke-linejoin="round"/>
<path d="M181.267 56.3203L163.135 93.7104C162.695 94.6246 161.963 95.3656 161.054 95.8158C160.145 96.266 159.111 96.3995 158.118 96.195L117.412 87.9141" stroke="#6EDBFF" stroke-width="1.2" stroke-linecap="round" stroke-linejoin="round"/>
<path d="M165.005 89.8594L201.564 97.8966" stroke="#6EDBFF" stroke-width="1.2" stroke-linecap="round" stroke-linejoin="round"/>
<path d="M137.39 128.829L153.524 95.6172" stroke="#6EDBFF" stroke-width="1.2" stroke-linecap="round" stroke-linejoin="round"/>
<path d="M163.471 93.0191L200.985 98.3041L165.005 89.8594L163.471 93.0191Z" fill="#6EDBFF"/>
<path d="M157.57 96.08L137.929 128.828L153.684 95.2891L157.57 96.08Z" fill="#6EDBFF"/>
<path d="M168.62 90.6542L181.531 57.0352L165.005 89.8593L168.62 90.6542Z" fill="#6EDBFF"/>
<path d="M117.584 88.4727L152.417 97.8961L153.524 95.6151L117.584 88.4727Z" fill="#6EDBFF"/>
<path d="M155.374 98.7186C155.374 98.7186 159.716 100.476 163 98.9143C166.867 97.0768 167.941 92.2033 167.941 92.2033L164.154 92.0195C164.154 92.0195 163.631 95.0515 161.905 95.6147C160.18 96.178 157.004 95.9663 157.004 95.9663L155.374 98.7186Z" fill="#6EDBFF"/>
</svg>
